<svg xmlns="http://www.w3.org/2000/svg" width="1200" height="720" viewBox="0 0 1200 720">
<rect width="1200" height="720" fill="#f8fafc"/>
<text x="60" y="55" font-family="Arial" font-size="32" font-weight="700" fill="#14213d">Thermal Exposure Simulation V1</text>
<text x="60" y="86" font-family="Arial" font-size="16" fill="#526070">Lumped RC concept model for sealed outdoor IoT enclosure: ambient ramp, solar/lamp input and electronics heat.</text>
<rect x="90" y="90" width="1050" height="540" fill="#ffffff" stroke="#cbd5e1"/>
<line x1="90" y1="630.0" x2="1140" y2="630.0" stroke="#e2e8f0"/>
<text x="42" y="634.0" font-family="Arial" font-size="13" fill="#475569">18C</text>
<line x1="90" y1="578.1" x2="1140" y2="578.1" stroke="#e2e8f0"/>
<text x="42" y="582.1" font-family="Arial" font-size="13" fill="#475569">23C</text>
<line x1="90" y1="526.2" x2="1140" y2="526.2" stroke="#e2e8f0"/>
<text x="42" y="530.2" font-family="Arial" font-size="13" fill="#475569">28C</text>
<line x1="90" y1="474.2" x2="1140" y2="474.2" stroke="#e2e8f0"/>
<text x="42" y="478.2" font-family="Arial" font-size="13" fill="#475569">33C</text>
<line x1="90" y1="422.3" x2="1140" y2="422.3" stroke="#e2e8f0"/>
<text x="42" y="426.3" font-family="Arial" font-size="13" fill="#475569">38C</text>
<line x1="90" y1="370.4" x2="1140" y2="370.4" stroke="#e2e8f0"/>
<text x="42" y="374.4" font-family="Arial" font-size="13" fill="#475569">43C</text>
<line x1="90" y1="318.5" x2="1140" y2="318.5" stroke="#e2e8f0"/>
<text x="42" y="322.5" font-family="Arial" font-size="13" fill="#475569">48C</text>
<line x1="90" y1="266.5" x2="1140" y2="266.5" stroke="#e2e8f0"/>
<text x="42" y="270.5" font-family="Arial" font-size="13" fill="#475569">53C</text>
<line x1="90" y1="214.6" x2="1140" y2="214.6" stroke="#e2e8f0"/>
<text x="42" y="218.6" font-family="Arial" font-size="13" fill="#475569">58C</text>
<line x1="90" y1="162.7" x2="1140" y2="162.7" stroke="#e2e8f0"/>
<text x="42" y="166.7" font-family="Arial" font-size="13" fill="#475569">63C</text>
<line x1="90" y1="110.8" x2="1140" y2="110.8" stroke="#e2e8f0"/>
<text x="42" y="114.8" font-family="Arial" font-size="13" fill="#475569">68C</text>
<line x1="90.0" y1="90" x2="90.0" y2="630" stroke="#e2e8f0"/>
<text x="68.0" y="656" font-family="Arial" font-size="13" fill="#475569">0 min</text>
<line x1="352.5" y1="90" x2="352.5" y2="630" stroke="#e2e8f0"/>
<text x="330.5" y="656" font-family="Arial" font-size="13" fill="#475569">60 min</text>
<line x1="615.0" y1="90" x2="615.0" y2="630" stroke="#e2e8f0"/>
<text x="593.0" y="656" font-family="Arial" font-size="13" fill="#475569">120 min</text>
<line x1="877.5" y1="90" x2="877.5" y2="630" stroke="#e2e8f0"/>
<text x="855.5" y="656" font-family="Arial" font-size="13" fill="#475569">180 min</text>
<line x1="1140.0" y1="90" x2="1140.0" y2="630" stroke="#e2e8f0"/>
<text x="1118.0" y="656" font-family="Arial" font-size="13" fill="#475569">240 min</text>
<polyline points="90.0,609.2 94.4,608.4 98.8,608.1 103.1,607.6 107.5,607.1 111.9,606.4 116.2,605.6 120.6,604.7 125.0,603.7 129.4,602.7 133.8,601.5 138.1,600.2 142.5,598.8 146.9,597.3 151.2,595.7 155.6,594.0 160.0,592.3 164.4,590.4 168.8,588.5 173.1,586.5 177.5,584.4 181.9,582.2 186.2,579.9 190.6,577.6 195.0,575.2 199.4,572.7 203.8,570.1 208.1,567.4 212.5,564.7 216.9,561.9 221.2,558.5 225.6,555.1 230.0,552.1 234.4,549.1 238.8,546.0 243.1,542.9 247.5,539.7 251.9,536.4 256.2,533.1 260.6,529.7 265.0,526.3 269.4,522.8 273.8,519.3 278.1,515.7 282.5,512.1 286.9,508.5 291.2,504.8 295.6,501.0 300.0,497.3 304.4,493.4 308.8,489.6 313.1,485.7 317.5,481.8 321.9,477.8 326.2,473.8 330.6,469.8 335.0,465.8 339.4,461.7 343.8,457.6 348.1,453.5 352.5,448.8 356.9,444.1 361.2,440.0 365.6,435.8 370.0,431.6 374.4,427.4 378.8,423.2 383.1,418.9 387.5,414.7 391.9,410.4 396.2,406.2 400.6,401.9 405.0,397.6 409.4,393.3 413.8,389.0 418.1,384.8 422.5,380.5 426.9,376.2 431.2,371.9 435.6,367.6 440.0,363.3 444.4,359.1 448.8,354.8 453.1,350.6 457.5,346.3 461.9,342.1 466.2,337.9 470.6,333.7 475.0,329.5 479.4,325.3 483.8,320.6 488.1,315.9 492.5,311.8 496.9,307.7 501.2,303.6 505.6,299.6 510.0,295.6 514.4,291.6 518.8,287.6 523.1,283.7 527.5,279.8 531.9,275.9 536.2,272.0 540.6,268.2 545.0,264.4 549.4,260.7 553.8,257.0 558.1,253.3 562.5,249.6 566.9,246.0 571.2,242.4 575.6,238.9 580.0,235.4 584.4,231.9 588.8,228.5 593.1,225.2 597.5,221.8 601.9,218.6 606.2,215.3 610.6,212.1 615.0,208.4 619.4,204.8 623.8,201.8 628.1,198.8 632.5,195.9 636.9,193.0 641.2,190.2 645.6,187.4 650.0,184.7 654.4,182.0 658.8,179.4 663.1,176.8 667.5,174.3 671.9,171.9 676.2,169.5 680.6,167.2 685.0,164.9 689.4,162.7 693.8,160.5 698.1,158.5 702.5,156.4 706.9,154.5 711.2,152.6 715.6,150.7 720.0,148.9 724.4,147.2 728.8,145.6 733.1,144.0 737.5,142.5 741.9,141.0 746.2,139.1 750.6,137.2 755.0,136.0 759.4,134.8 763.8,133.7 768.1,132.7 772.5,131.7 776.9,130.8 781.2,130.0 785.6,129.2 790.0,128.5 794.4,127.9 798.8,127.4 803.1,126.9 807.5,126.5 811.9,126.1 816.2,125.9 820.6,125.7 825.0,125.5 829.4,125.5 833.8,125.5 838.1,125.6 842.5,125.8 846.9,126.0 851.2,126.3 855.6,126.7 860.0,127.1 864.4,127.7 868.8,128.3 873.1,128.9 877.5,129.1 881.9,129.4 886.2,130.3 890.6,131.3 895.0,132.3 899.4,133.5 903.8,134.7 908.1,135.9 912.5,137.3 916.9,138.7 921.2,140.2 925.6,141.7 930.0,143.3 934.4,145.0 938.8,146.8 943.1,148.6 947.5,150.5 951.9,152.5 956.2,154.6 960.6,156.7 965.0,158.9 969.4,161.1 973.8,163.5 978.1,165.9 982.5,168.3 986.9,170.9 991.2,173.5 995.6,176.1 1000.0,178.9 1004.4,181.7 1008.8,184.0 1013.1,186.4 1017.5,189.4 1021.9,192.5 1026.2,195.6 1030.6,198.8 1035.0,202.1 1039.4,205.4 1043.8,208.8 1048.1,212.3 1052.5,215.8 1056.9,219.4 1061.2,223.0 1065.6,226.8 1070.0,230.5 1074.4,234.3 1078.8,238.2 1083.1,242.2 1087.5,246.1 1091.9,250.2 1096.2,254.3 1100.6,258.5 1105.0,262.7 1109.4,267.0 1113.8,271.3 1118.1,275.6 1122.5,280.1 1126.9,284.6 1131.2,289.1 1135.6,293.7 1140.0,297.7" fill="none" stroke="#2563eb" stroke-width="4"/>
<polyline points="90.0,609.2 94.4,607.6 98.8,606.0 103.1,604.3 107.5,602.7 111.9,601.1 116.2,599.5 120.6,597.8 125.0,596.2 129.4,594.6 133.8,593.0 138.1,591.3 142.5,589.7 146.9,588.1 151.2,586.5 155.6,584.9 160.0,583.3 164.4,581.7 168.8,580.1 173.1,578.6 177.5,577.0 181.9,575.4 186.2,573.8 190.6,572.3 195.0,570.7 199.4,569.2 203.8,567.6 208.1,566.1 212.5,564.6 216.9,563.1 221.2,561.5 225.6,560.0 230.0,558.5 234.4,557.1 238.8,555.6 243.1,554.1 247.5,552.7 251.9,551.2 256.2,549.8 260.6,548.3 265.0,546.9 269.4,545.5 273.8,544.1 278.1,542.7 282.5,541.4 286.9,540.0 291.2,538.6 295.6,537.3 300.0,536.0 304.4,534.7 308.8,533.4 313.1,532.1 317.5,530.8 321.9,529.5 326.2,528.3 330.6,527.1 335.0,525.8 339.4,524.6 343.8,523.5 348.1,522.3 352.5,521.1 356.9,520.0 361.2,518.8 365.6,517.7 370.0,516.6 374.4,515.5 378.8,514.5 383.1,513.4 387.5,512.4 391.9,511.4 396.2,510.4 400.6,509.4 405.0,508.4 409.4,507.5 413.8,506.5 418.1,505.6 422.5,504.7 426.9,503.8 431.2,503.0 435.6,502.1 440.0,501.3 444.4,500.5 448.8,499.7 453.1,498.9 457.5,498.2 461.9,497.5 466.2,496.8 470.6,496.1 475.0,495.4 479.4,494.7 483.8,494.1 488.1,493.5 492.5,492.9 496.9,492.3 501.2,491.8 505.6,491.2 510.0,490.7 514.4,490.2 518.8,489.7 523.1,489.3 527.5,488.9 531.9,488.4 536.2,488.1 540.6,487.7 545.0,487.3 549.4,487.0 553.8,486.7 558.1,486.4 562.5,486.1 566.9,485.9 571.2,485.7 575.6,485.5 580.0,485.3 584.4,485.1 588.8,485.0 593.1,484.9 597.5,484.8 601.9,484.7 606.2,484.7 610.6,484.6 615.0,484.6 619.4,484.6 623.8,484.7 628.1,484.7 632.5,484.8 636.9,484.9 641.2,485.0 645.6,485.1 650.0,485.3 654.4,485.5 658.8,485.7 663.1,485.9 667.5,486.1 671.9,486.4 676.2,486.7 680.6,487.0 685.0,487.3 689.4,487.7 693.8,488.1 698.1,488.4 702.5,488.9 706.9,489.3 711.2,489.7 715.6,490.2 720.0,490.7 724.4,491.2 728.8,491.8 733.1,492.3 737.5,492.9 741.9,493.5 746.2,494.1 750.6,494.7 755.0,495.4 759.4,496.1 763.8,496.8 768.1,497.5 772.5,498.2 776.9,498.9 781.2,499.7 785.6,500.5 790.0,501.3 794.4,502.1 798.8,503.0 803.1,503.8 807.5,504.7 811.9,505.6 816.2,506.5 820.6,507.5 825.0,508.4 829.4,509.4 833.8,510.4 838.1,511.4 842.5,512.4 846.9,513.4 851.2,514.5 855.6,515.5 860.0,516.6 864.4,517.7 868.8,518.8 873.1,520.0 877.5,521.1 881.9,522.3 886.2,523.5 890.6,524.6 895.0,525.8 899.4,527.1 903.8,528.3 908.1,529.5 912.5,530.8 916.9,532.1 921.2,533.4 925.6,534.7 930.0,536.0 934.4,537.3 938.8,538.6 943.1,540.0 947.5,541.4 951.9,542.7 956.2,544.1 960.6,545.5 965.0,546.9 969.4,548.3 973.8,549.8 978.1,551.2 982.5,552.7 986.9,554.1 991.2,555.6 995.6,557.1 1000.0,558.5 1004.4,560.0 1008.8,561.5 1013.1,563.1 1017.5,564.6 1021.9,566.1 1026.2,567.6 1030.6,569.2 1035.0,570.7 1039.4,572.3 1043.8,573.8 1048.1,575.4 1052.5,577.0 1056.9,578.6 1061.2,580.1 1065.6,581.7 1070.0,583.3 1074.4,584.9 1078.8,586.5 1083.1,588.1 1087.5,589.7 1091.9,591.3 1096.2,593.0 1100.6,594.6 1105.0,596.2 1109.4,597.8 1113.8,599.5 1118.1,601.1 1122.5,602.7 1126.9,604.3 1131.2,606.0 1135.6,607.6 1140.0,609.2" fill="none" stroke="#0f766e" stroke-width="3"/>
<polyline points="90.0,245.8 94.4,245.8 98.8,245.8 103.1,245.8 107.5,245.8 111.9,245.8 116.2,245.8 120.6,245.8 125.0,245.8 129.4,245.8 133.8,245.8 138.1,245.8 142.5,245.8 146.9,245.8 151.2,245.8 155.6,245.8 160.0,245.8 164.4,245.8 168.8,245.8 173.1,245.8 177.5,245.8 181.9,245.8 186.2,245.8 190.6,245.8 195.0,245.8 199.4,245.8 203.8,245.8 208.1,245.8 212.5,245.8 216.9,245.8 221.2,245.8 225.6,245.8 230.0,245.8 234.4,245.8 238.8,245.8 243.1,245.8 247.5,245.8 251.9,245.8 256.2,245.8 260.6,245.8 265.0,245.8 269.4,245.8 273.8,245.8 278.1,245.8 282.5,245.8 286.9,245.8 291.2,245.8 295.6,245.8 300.0,245.8 304.4,245.8 308.8,245.8 313.1,245.8 317.5,245.8 321.9,245.8 326.2,245.8 330.6,245.8 335.0,245.8 339.4,245.8 343.8,245.8 348.1,245.8 352.5,245.8 356.9,245.8 361.2,245.8 365.6,245.8 370.0,245.8 374.4,245.8 378.8,245.8 383.1,245.8 387.5,245.8 391.9,245.8 396.2,245.8 400.6,245.8 405.0,245.8 409.4,245.8 413.8,245.8 418.1,245.8 422.5,245.8 426.9,245.8 431.2,245.8 435.6,245.8 440.0,245.8 444.4,245.8 448.8,245.8 453.1,245.8 457.5,245.8 461.9,245.8 466.2,245.8 470.6,245.8 475.0,245.8 479.4,245.8 483.8,245.8 488.1,245.8 492.5,245.8 496.9,245.8 501.2,245.8 505.6,245.8 510.0,245.8 514.4,245.8 518.8,245.8 523.1,245.8 527.5,245.8 531.9,245.8 536.2,245.8 540.6,245.8 545.0,245.8 549.4,245.8 553.8,245.8 558.1,245.8 562.5,245.8 566.9,245.8 571.2,245.8 575.6,245.8 580.0,245.8 584.4,245.8 588.8,245.8 593.1,245.8 597.5,245.8 601.9,245.8 606.2,245.8 610.6,245.8 615.0,245.8 619.4,245.8 623.8,245.8 628.1,245.8 632.5,245.8 636.9,245.8 641.2,245.8 645.6,245.8 650.0,245.8 654.4,245.8 658.8,245.8 663.1,245.8 667.5,245.8 671.9,245.8 676.2,245.8 680.6,245.8 685.0,245.8 689.4,245.8 693.8,245.8 698.1,245.8 702.5,245.8 706.9,245.8 711.2,245.8 715.6,245.8 720.0,245.8 724.4,245.8 728.8,245.8 733.1,245.8 737.5,245.8 741.9,245.8 746.2,245.8 750.6,245.8 755.0,245.8 759.4,245.8 763.8,245.8 768.1,245.8 772.5,245.8 776.9,245.8 781.2,245.8 785.6,245.8 790.0,245.8 794.4,245.8 798.8,245.8 803.1,245.8 807.5,245.8 811.9,245.8 816.2,245.8 820.6,245.8 825.0,245.8 829.4,245.8 833.8,245.8 838.1,245.8 842.5,245.8 846.9,245.8 851.2,245.8 855.6,245.8 860.0,245.8 864.4,245.8 868.8,245.8 873.1,245.8 877.5,245.8 881.9,245.8 886.2,245.8 890.6,245.8 895.0,245.8 899.4,245.8 903.8,245.8 908.1,245.8 912.5,245.8 916.9,245.8 921.2,245.8 925.6,245.8 930.0,245.8 934.4,245.8 938.8,245.8 943.1,245.8 947.5,245.8 951.9,245.8 956.2,245.8 960.6,245.8 965.0,245.8 969.4,245.8 973.8,245.8 978.1,245.8 982.5,245.8 986.9,245.8 991.2,245.8 995.6,245.8 1000.0,245.8 1004.4,245.8 1008.8,245.8 1013.1,245.8 1017.5,245.8 1021.9,245.8 1026.2,245.8 1030.6,245.8 1035.0,245.8 1039.4,245.8 1043.8,245.8 1048.1,245.8 1052.5,245.8 1056.9,245.8 1061.2,245.8 1065.6,245.8 1070.0,245.8 1074.4,245.8 1078.8,245.8 1083.1,245.8 1087.5,245.8 1091.9,245.8 1096.2,245.8 1100.6,245.8 1105.0,245.8 1109.4,245.8 1113.8,245.8 1118.1,245.8 1122.5,245.8 1126.9,245.8 1131.2,245.8 1135.6,245.8 1140.0,245.8" fill="none" stroke="#f97316" stroke-width="2" stroke-dasharray="8 8"/>
<rect x="815" y="118" width="310" height="118" rx="8" fill="#ffffff" stroke="#cbd5e1"/>
<circle cx="842" cy="148" r="7" fill="#2563eb"/><text x="860" y="153" font-family="Arial" font-size="15" fill="#14213d">Internal enclosure temperature</text>
<circle cx="842" cy="178" r="7" fill="#0f766e"/><text x="860" y="183" font-family="Arial" font-size="15" fill="#14213d">Ambient temperature</text>
<line x1="835" y1="207" x2="850" y2="207" stroke="#f97316" stroke-width="3" stroke-dasharray="5 5"/><text x="860" y="212" font-family="Arial" font-size="15" fill="#14213d">55C warning reference</text>
<rect x="90" y="650" width="780" height="42" rx="8" fill="#eef6ff" stroke="#bfdbfe"/>
<text x="110" y="676" font-family="Arial" font-size="16" fill="#14213d">Peak internal: 66.6C | Peak ambient: 32.0C | Minimum margin to warning: -11.6C | Evidence boundary: simulation only, no measured thermal test.</text>
</svg>
